HIERARCHY
ROOT Root
{
	OFFSET 0.00000 0.00000 0.00000
	CHANNELS 6 Xposition Yposition Zposition Zrotation Xrotation Yrotation
	JOINT Hip
	{
		OFFSET 0 0 0	
		CHANNELS 3 Zrotation Xrotation Yrotation
		JOINT Tummy
		{
			OFFSET 0 0.04 0	
			CHANNELS 3 Zrotation Xrotation Yrotation
			JOINT ChestBottom
			{
				OFFSET 0 0.194 0	
				CHANNELS 3 Zrotation Xrotation Yrotation
				JOINT ChestTop
				{
					OFFSET 0 0.166 0	
					CHANNELS 3 Zrotation Xrotation Yrotation
					JOINT LeftCollar
					{
						OFFSET 0 0.1 0	
						CHANNELS 3 Zrotation Xrotation Yrotation
						JOINT LeftUpperArm
						{
							OFFSET 0.156 -0.02 0.03	
							CHANNELS 3 Zrotation Xrotation Yrotation
							JOINT LeftForeArm
							{
								OFFSET 0.035 -0.27 -0.01	
								CHANNELS 3 Zrotation Xrotation Yrotation
								JOINT LeftHand
								{
									OFFSET 0.01 -0.27 0.01	
									CHANNELS 3 Zrotation Xrotation Yrotation
									End Site
									{
										OFFSET 0 -0.15 0
									}
								}
							}
						}
					}
					JOINT RightCollar
					{
						OFFSET 0 0.1 0	
						CHANNELS 3 Zrotation Xrotation Yrotation
						JOINT RightUpperArm
						{
							OFFSET -0.156 -0.02 0.03	
							CHANNELS 3 Zrotation Xrotation Yrotation
							JOINT RightForeArm
							{
								OFFSET -0.035 -0.27 -0.01	
								CHANNELS 3 Zrotation Xrotation Yrotation
								JOINT RightHand
								{
									OFFSET -0.01 -0.27 0.01	
									CHANNELS 3 Zrotation Xrotation Yrotation
									End Site
									{
										OFFSET 0 -0.15 0
									}
								}
							}
						}
					}
					JOINT Neck
					{
						OFFSET 0 0.1 0	
						CHANNELS 3 Zrotation Xrotation Yrotation
						JOINT Head
						{
							OFFSET 0 0.127 0.03	
							CHANNELS 3 Zrotation Xrotation Yrotation
							End Site
							{
								OFFSET 0 0.127 0.03
							}
						}
					}
				}
			}
		}
	}
	JOINT LeftHip
	{
		OFFSET 0 0 0	
		CHANNELS 3 Zrotation Xrotation Yrotation
		JOINT LeftThigh
		{
			OFFSET 0.088 -0.06 0	
			CHANNELS 3 Zrotation Xrotation Yrotation
			JOINT LeftLowerLeg
			{
				OFFSET 0 -0.39 0.02	
				CHANNELS 3 Zrotation Xrotation Yrotation
				JOINT LeftFootTop
				{
					OFFSET 0 -0.43 -0.02	
					CHANNELS 3 Zrotation Xrotation Yrotation
					JOINT LeftFootFront
					{
						OFFSET 0 -0.07 0.085	
						CHANNELS 3 Zrotation Xrotation Yrotation
						End Site
						{
							OFFSET 0 -0.005 0.09
						}
					}
				}
				JOINT LeftHeel
				{
					OFFSET 0 -0.43 -0.02	
					CHANNELS 3 Zrotation Xrotation Yrotation
					End Site
					{
						OFFSET 0 -0.075 -0.05
					}
				}
			}
		}
	}
	JOINT RightHip
	{
		OFFSET 0 0 0	
		CHANNELS 3 Zrotation Xrotation Yrotation
		JOINT RightThigh
		{
			OFFSET -0.088 -0.06 0	
			CHANNELS 3 Zrotation Xrotation Yrotation
			JOINT RightLowerLeg
			{
				OFFSET 0 -0.39 0.02	
				CHANNELS 3 Zrotation Xrotation Yrotation
				JOINT RightFootTop
				{
					OFFSET 0 -0.43 -0.02	
					CHANNELS 3 Zrotation Xrotation Yrotation
					JOINT RightFootFront
					{
						OFFSET 0 -0.07 0.085	
						CHANNELS 3 Zrotation Xrotation Yrotation
						End Site
						{
							OFFSET 0 -0.005 0.09
						}
					}
				}
				JOINT RightHeel
				{
					OFFSET 0 -0.43 -0.02	
					CHANNELS 3 Zrotation Xrotation Yrotation
					End Site
					{
						OFFSET 0 -0.075 -0.05
					}
				}
			}
		}
	}
}
MOTION
Frames: 20
Frame Time: 0.05
0 0.955 0 -0 0 -0 -108.78 -9.662 103.51 -57.834 -18.167 53.013 -57.834 -18.167 53.013 -49.814 -11.856 45.94 -0 0 -0 -40.187 1.8507 -67.366 38.402 38.601 47.481 -0 0 -0 -0 0 -0 61.757 -14.277 20.506 -33.741 -21.811 -56.775 -0 0 -0 -0 0 -0 -0 0 -0 -0 0 -0 -0 0 -0 -0 0 -0 -0 0 -0 -0 0 -0 -0 0 -0 -0 0 -0 -0 0 -0 -0 0 -0 -0 0 -0 -0 0 -0 -0 0 -0 
0 0.955 0 -0 0 -0 -110.09 -7.8162 101.91 -59.375 -18.249 53.336 -59.375 -18.249 53.336 -51.124 -11.811 46.274 -0 0 -0 -41.132 -0.9877 -70.744 36.968 39.033 48.213 -0 0 -0 -0 0 -0 62.724 -15.358 20.495 -32.836 -22.227 -56.093 -0 0 -0 -0 0 -0 -0 0 -0 -0 0 -0 -0 0 -0 -0 0 -0 -0 0 -0 -0 0 -0 -0 0 -0 -0 0 -0 -0 0 -0 -0 0 -0 -0 0 -0 -0 0 -0 -0 0 -0 
0 0.955 0 -0 0 -0 -110.76 -8.9604 102.57 -59.416 -17.651 53.052 -59.416 -17.651 53.052 -51.129 -11.316 46.009 -0 0 -0 -43.446 -1.8886 -72.771 37.341 39.846 48.516 -0 0 -0 -0 0 -0 62.458 -15.316 20.497 -32.666 -22.857 -55.351 -0 0 -0 -0 0 -0 -0 0 -0 -0 0 -0 -0 0 -0 -0 0 -0 -0 0 -0 -0 0 -0 -0 0 -0 -0 0 -0 -0 0 -0 -0 0 -0 -0 0 -0 -0 0 -0 -0 0 -0 
0 0.955 0 -0 0 -0 -114.3 -9.9996 98.476 -61.372 -19.569 50.628 -61.372 -19.569 50.628 -52.735 -13.012 44.133 -0 0 -0 -42.945 -2.0456 -73.285 38.144 40.588 48.831 -0 0 -0 -0 0 -0 64.792 -13.924 21.288 -33.145 -23.481 -55.107 -0 0 -0 -0 0 -0 -0 0 -0 -0 0 -0 -0 0 -0 -0 0 -0 -0 0 -0 -0 0 -0 -0 0 -0 -0 0 -0 -0 0 -0 -0 0 -0 -0 0 -0 -0 0 -0 -0 0 -0 
0 0.955 0 -0 0 -0 -110.94 -17.82 90.498 -57.235 -26.6 49.8 -57.235 -26.6 49.8 -49.397 -19.315 43.559 -0 0 -0 -38.041 3.0716 -66.333 35.964 36.856 50.053 -0 0 -0 -0 0 -0 65.708 -9.9411 15.674 -33.659 -23.892 -55.298 -0 0 -0 -0 0 -0 -0 0 -0 -0 0 -0 -0 0 -0 -0 0 -0 -0 0 -0 -0 0 -0 -0 0 -0 -0 0 -0 -0 0 -0 -0 0 -0 -0 0 -0 -0 0 -0 -0 0 -0 
0 0.955 0 -0 0 -0 -109.76 -32.045 87.199 -51.119 -31.376 46.784 -51.119 -31.376 46.784 -44.259 -23.889 40.904 -0 0 -0 -34.143 6.3406 -54.46 34.14 32.716 49.222 -0 0 -0 -0 0 -0 65.116 -3.1326 11.222 -33.736 -23.93 -55.459 -0 0 -0 -0 0 -0 -0 0 -0 -0 0 -0 -0 0 -0 -0 0 -0 -0 0 -0 -0 0 -0 -0 0 -0 -0 0 -0 -0 0 -0 -0 0 -0 -0 0 -0 -0 0 -0 -0 0 -0 
0 0.955 0 -0 0 -0 -114.55 -26.154 89.751 -56.043 -27.795 45.352 -56.043 -27.795 45.352 -48.213 -20.676 39.84 -0 0 -0 -30.882 2.4244 -52.896 33.678 30.523 46.686 -0 0 -0 -0 0 -0 66.251 -5.4826 15.244 -33.415 -23.661 -55.323 -0 0 -0 -0 0 -0 -0 0 -0 -0 0 -0 -0 0 -0 -0 0 -0 -0 0 -0 -0 0 -0 -0 0 -0 -0 0 -0 -0 0 -0 -0 0 -0 -0 0 -0 -0 0 -0 -0 0 -0 
0 0.955 0 -0 0 -0 -120.7 -19.178 92.499 -61.858 -23.451 43.664 -61.858 -23.45 43.664 -52.927 -16.798 38.494 -0 0 -0 -27.47 -0.50901 -52.339 33.772 28.688 44.923 -0 0 -0 -0 0 -0 67.804 -8.0223 20.58 -33.11 -23.639 -55.305 -0 0 -0 -0 0 -0 -0 0 -0 -0 0 -0 -0 0 -0 -0 0 -0 -0 0 -0 -0 0 -0 -0 0 -0 -0 0 -0 -0 0 -0 -0 0 -0 -0 0 -0 -0 0 -0 -0 0 -0 
0 0.955 0 -0 0 -0 -125.36 -14.48 94.318 -66.012 -20.335 42.281 -66.012 -20.335 42.281 -56.311 -14.041 37.329 -0 0 -0 -22.525 1.3335 -51.007 33.772 26.152 45.328 -0 0 -0 -0 0 -0 69.133 -9.6977 24.635 -32.882 -24.163 -55.433 -0 0 -0 -0 0 -0 -0 0 -0 -0 0 -0 -0 0 -0 -0 0 -0 -0 0 -0 -0 0 -0 -0 0 -0 -0 0 -0 -0 0 -0 -0 0 -0 -0 0 -0 -0 0 -0 -0 0 -0 
0 0.955 0 -0 0 -0 -124.66 -13.59 93.291 -66.271 -20.966 42.609 -66.271 -20.966 42.609 -56.546 -14.545 37.654 -0 0 -0 -18.435 9.4006 -46.98 33.675 22.867 45.854 -0 0 -0 -0 0 -0 69.369 -10.249 24.14 -32.822 -24.859 -55.797 -0 0 -0 -0 0 -0 -0 0 -0 -0 0 -0 -0 0 -0 -0 0 -0 -0 0 -0 -0 0 -0 -0 0 -0 -0 0 -0 -0 0 -0 -0 0 -0 -0 0 -0 -0 0 -0 -0 0 -0 
0 0.955 0 -0 0 -0 -119.12 -7.7162 97.254 -65.266 -18.991 47.984 -65.266 -18.991 47.984 -55.885 -12.495 42.03 -0 0 -0 -19.082 17.604 -43.222 34.74 20.473 43.99 -0 0 -0 -0 0 -0 66.93 -14.704 23.654 -33.626 -25.356 -56.736 -0 0 -0 -0 0 -0 -0 0 -0 -0 0 -0 -0 0 -0 -0 0 -0 -0 0 -0 -0 0 -0 -0 0 -0 -0 0 -0 -0 0 -0 -0 0 -0 -0 0 -0 -0 0 -0 -0 0 -0 
0 0.955 0 -0 0 -0 -110.44 -3.464 95.777 -62.18 -20.566 54.077 -62.18 -20.566 54.077 -53.579 -13.575 47.115 -0 0 -0 -22.255 30.18 -33.853 37.237 18.561 40.805 -0 0 -0 -0 0 -0 64.11 -17.985 19.391 -36.123 -26.004 -58.57 -0 0 -0 -0 0 -0 -0 0 -0 -0 0 -0 -0 0 -0 -0 0 -0 -0 0 -0 -0 0 -0 -0 0 -0 -0 0 -0 -0 0 -0 -0 0 -0 -0 0 -0 -0 0 -0 -0 0 -0 
0 0.955 0 -0 0 -0 -98.359 -0.053088 89.115 47.323 -34.591 -53.053 47.323 -34.591 -53.053 41.553 -26.512 -45.93 -0 0 -0 -166.91 -45.974 -17.649 39.969 16.897 37.459 -0 0 -0 -0 0 -0 -57.036 -0.081474 102.35 -40.477 -27.186 -61.52 -0 0 -0 -0 0 -0 -0 0 -0 -0 0 -0 -0 0 -0 -0 0 -0 -0 0 -0 -0 0 -0 -0 0 -0 -0 0 -0 -0 0 -0 -0 0 -0 -0 0 -0 -0 0 -0 -0 0 -0 
0 0.955 0 -0 0 -0 -87.328 -1.3989 81.457 41.581 -28.787 -59.005 41.581 -28.787 -59.005 36.89 -21.629 -50.496 -0 0 -0 -173.79 -42.495 -13.482 41.967 15.783 33.935 -0 0 -0 -0 0 -0 -50.738 -3.5361 104.26 -46.082 -28.627 -65.433 -0 0 -0 -0 0 -0 -0 0 -0 -0 0 -0 -0 0 -0 -0 0 -0 -0 0 -0 -0 0 -0 -0 0 -0 -0 0 -0 -0 0 -0 -0 0 -0 -0 0 -0 -0 0 -0 -0 0 -0 
0 0.955 0 -0 0 -0 -83.685 -7.6681 67.008 42.802 -19.025 -60.407 42.802 -19.025 -60.407 37.48 -13.144 -51.621 -0 0 -0 -177.27 -36.667 -4.5283 43.19 14.76 30.112 -0 0 -0 -0 0 -0 -45.312 -10.027 101.61 -51.696 -29.747 -69.843 -0 0 -0 -0 0 -0 -0 0 -0 -0 0 -0 -0 0 -0 -0 0 -0 -0 0 -0 -0 0 -0 -0 0 -0 -0 0 -0 -0 0 -0 -0 0 -0 -0 0 -0 -0 0 -0 -0 0 -0 
0 0.955 0 -0 0 -0 -87.415 -13.146 46.617 46.433 -7.2195 -58.468 46.433 -7.2195 -58.468 39.848 -2.9137 -49.762 -0 0 -0 -173.04 -31.805 11.189 42.831 13.52 26.406 -0 0 -0 -0 0 -0 -41.176 -16.68 95.209 -55.957 -30.245 -73.906 -0 0 -0 -0 0 -0 -0 0 -0 -0 0 -0 -0 0 -0 -0 0 -0 -0 0 -0 -0 0 -0 -0 0 -0 -0 0 -0 -0 0 -0 -0 0 -0 -0 0 -0 -0 0 -0 -0 0 -0 
0 0.955 0 -0 0 -0 -94.146 -16.359 21.651 48.457 6.4067 -55.395 48.457 6.4067 -55.395 40.646 8.6532 -46.482 -0 0 -0 -158.91 -25.242 30.939 39.079 9.6086 23.102 -0 0 -0 -0 0 -0 -36.44 -22.613 86.98 -58.292 -30.297 -76.931 -0 0 -0 -0 0 -0 -0 0 -0 -0 0 -0 -0 0 -0 -0 0 -0 -0 0 -0 -0 0 -0 -0 0 -0 -0 0 -0 -0 0 -0 -0 0 -0 -0 0 -0 -0 0 -0 -0 0 -0 
0 0.955 0 -0 0 -0 -99.042 -18.612 1.5976 47.685 17.015 -53.723 47.685 17.015 -53.723 39.121 17.507 -44.263 -0 0 -0 -144.53 -16.087 48.574 32.815 2.9439 20.441 -0 0 -0 -0 0 -0 -32.44 -27.092 82.026 -59.179 -29.98 -79.069 -0 0 -0 -0 0 -0 -0 0 -0 -0 0 -0 -0 0 -0 -0 0 -0 -0 0 -0 -0 0 -0 -0 0 -0 -0 0 -0 -0 0 -0 -0 0 -0 -0 0 -0 -0 0 -0 -0 0 -0 
0 0.955 0 -0 0 -0 -101.64 -22.059 -9.8496 46.168 23.126 -54.445 46.168 23.126 -54.445 37.218 22.622 -44.306 -0 0 -0 -136.24 -7.5194 61.918 26.627 -4.9409 17.532 -0 0 -0 -0 0 -0 -29.829 -30.658 81.614 -59.89 -29.281 -81.413 -0 0 -0 -0 0 -0 -0 0 -0 -0 0 -0 -0 0 -0 -0 0 -0 -0 0 -0 -0 0 -0 -0 0 -0 -0 0 -0 -0 0 -0 -0 0 -0 -0 0 -0 -0 0 -0 -0 0 -0 
0 0.955 0 -0 0 -0 -102.61 -23.694 -15.901 44.769 26.245 -55.091 44.769 26.245 -55.091 35.673 25.202 -44.536 -0 0 -0 -131.71 -1.4629 71.722 23.144 -10.796 15.322 -0 0 -0 -0 0 -0 -28.475 -32.561 82.438 -61.071 -28.579 -84.406 -0 0 -0 -0 0 -0 -0 0 -0 -0 0 -0 -0 0 -0 -0 0 -0 -0 0 -0 -0 0 -0 -0 0 -0 -0 0 -0 -0 0 -0 -0 0 -0 -0 0 -0 -0 0 -0 -0 0 -0 
